<?xml version="1.0" encoding="UTF-8" standalone="no"?>
<svg width="1024px" height="1024px" viewBox="0 0 1024 1024" version="1.1" xmlns="http://www.w3.org/2000/svg" xmlns:xlink="http://www.w3.org/1999/xlink" xmlns:sketch="http://www.bohemiancoding.com/sketch/ns">
    <title>1024</title>
    <description>Created with Sketch (http://www.bohemiancoding.com/sketch)</description>
    <defs></defs>
    <g id="Page 1" stroke="none" stroke-width="1" fill="none" fill-rule="evenodd">
        <g id="1024">
            <g id="Blogger" transform="translate(256.000000, 256.000000)">
                <path d="M46.0001076,0 C20.5949497,0 0,20.5855615 0,46.0001076 L0,465.999892 C0,491.40505 20.5855615,512 46.0001076,512 L465.999892,512 C491.40505,512 512,491.414438 512,465.999892 L512,46.0001076 C512,20.5949497 491.414438,0 465.999892,0 L46.0001076,0 Z M46.0001076,0" id="Rectangle 1" fill="#F6830A"></path>
                <path d="M328.664908,422.054054 L190.254011,422.054054 C142.508707,422.054054 103.783784,383.328434 103.783784,335.55796 L103.783784,192.009607 C103.783784,167.718073 113.798243,145.761455 129.923397,130.048337 C145.642404,113.847595 167.647511,103.783784 192.004109,103.783784 L281.945946,105.513514 C349.511824,119.932432 367.103041,175.638514 353.180743,228.324324 C388.630268,228.324324 410.578394,245.823158 415.299922,268.108108 L415.135135,335.55796 C415.135135,383.319181 376.421096,422.054054 328.664908,422.054054 Z M321.722204,351.135135 C337.011214,351.135135 349.405405,338.747674 349.405405,323.459459 C349.405405,308.174606 337.028972,295.783784 321.722204,295.783784 L195.466985,295.783784 C180.177975,295.783784 167.783784,308.171245 167.783784,323.459459 C167.783784,338.744313 180.160217,351.135135 195.466985,351.135135 L321.722204,351.135135 Z M266.372466,226.594595 C281.660585,226.594595 294.054054,214.207133 294.054054,198.918919 C294.054054,183.634065 281.675063,171.243243 266.372466,171.243243 L202.384291,171.243243 C187.096172,171.243243 174.702703,183.630705 174.702703,198.918919 C174.702703,214.203773 187.081694,226.594595 202.384291,226.594595 L266.372466,226.594595 Z M266.372466,226.594595" id="Rectangle 2" fill="#FFFFFF"></path>
            </g>
        </g>
    </g>
</svg>