<?xml version="1.0" encoding="UTF-8" standalone="no"?>
<svg width="579px" height="579px" xmlns="http://www.w3.org/2000/svg" version="1.1">
    <title>Slice 1</title>
    <description>Created with Sketch (http://www.bohemiancoding.com/sketch)</description>
    <defs>
        <linearGradient id="gradient-1" x1="50%" y1="0%" x2="50%" y2="100%">
            <stop offset="0%" style="stop-color:rgb(255,255,255); stop-opacity:100"></stop>
            <stop offset="100%" style="stop-color:rgb(0,0,0); stop-opacity:100"></stop>
        </linearGradient>
        <linearGradient id="gradient-2" x1="50%" y1="0%" x2="50%" y2="100%">
            <stop offset="0%" style="stop-color:rgb(255,255,255); stop-opacity:100"></stop>
            <stop offset="100%" style="stop-color:rgb(0,0,0); stop-opacity:100"></stop>
        </linearGradient>
        <linearGradient id="gradient-3" x1="50%" y1="0%" x2="50%" y2="100%">
            <stop offset="0%" style="stop-color:rgb(255,255,255); stop-opacity:100"></stop>
            <stop offset="100%" style="stop-color:rgb(0,0,0); stop-opacity:100"></stop>
        </linearGradient>
        <linearGradient id="gradient-4" x1="50%" y1="0%" x2="50%" y2="100%">
            <stop offset="0%" style="stop-color:rgb(255,255,255); stop-opacity:100"></stop>
            <stop offset="100%" style="stop-color:rgb(0,0,0); stop-opacity:100"></stop>
        </linearGradient>
        <linearGradient id="gradient-5" x1="50%" y1="0%" x2="50%" y2="100%">
            <stop offset="0%" style="stop-color:rgb(255,255,255); stop-opacity:100"></stop>
            <stop offset="100%" style="stop-color:rgb(0,0,0); stop-opacity:100"></stop>
        </linearGradient>
        <linearGradient id="gradient-6" x1="50%" y1="0%" x2="50%" y2="100%">
            <stop offset="0%" style="stop-color:rgb(255,255,255); stop-opacity:100"></stop>
            <stop offset="100%" style="stop-color:rgb(0,0,0); stop-opacity:100"></stop>
        </linearGradient>
        <linearGradient id="gradient-7" x1="50%" y1="0%" x2="50%" y2="100%">
            <stop offset="0%" style="stop-color:rgb(255,255,255); stop-opacity:100"></stop>
            <stop offset="100%" style="stop-color:rgb(0,0,0); stop-opacity:100"></stop>
        </linearGradient>
    </defs>
    <g fill="rgb(215,215,215)" id="Page 1">
        <g stroke="rgb(150,150,150)" stroke-width="1" fill="rgb(46,59,66)" id="Background Color"></g>
        <path id="Background Color" d="M0,0 L0,579 L579,579 L579,0 L0,0 Z M0,0" stroke="rgb(150,150,150)" stroke-width="1" fill="rgb(46,59,66)"></path>
        <path id="Background Color decoration" d="" stroke="rgb(150,150,150)" stroke-width="1" fill="rgb(46,59,66)"></path>
        <g stroke="rgb(150,150,150)" stroke-width="1" fill="rgb(244,232,56)" id="BC Logo"></g>
        <path id="BC Logo" d="M288,30 L511,158 L511,415 L312,530 L312,352 C339,343 359,317 359,287 C359,248 327,217 289,217 C250,217 219,248 219,287 C219,317 238,343 265,352 L265,530 L66,415 L66,158 Z M288,30" stroke="rgb(150,150,150)" stroke-width="1" fill="rgb(244,232,56)"></path>
        <path id="BC Logo decoration" d="" stroke="rgb(150,150,150)" stroke-width="1" fill="rgb(244,232,56)"></path>
    </g>
</svg>