<?xml version="1.0" encoding="UTF-8" standalone="no"?>
<svg width="1002px" height="1002px" viewBox="0 0 1002 1002" version="1.1" xmlns="http://www.w3.org/2000/svg" xmlns:xlink="http://www.w3.org/1999/xlink" xmlns:sketch="http://www.bohemiancoding.com/sketch/ns">
    <title>Slice 1</title>
    <description>Created with Sketch (http://www.bohemiancoding.com/sketch)</description>
    <defs></defs>
    <g id="Page 1" fill="#D8D8D8" fill-rule="evenodd">
        <g id="Green Latern">
            <path d="M348.821724,277.008493 L222.868365,277.008493 L222.868365,162.358811 L780.193206,162.358811 L780.193206,277.008493 L656.36299,277.008493 C727.317854,325.928463 773.823779,407.767815 773.823779,500.469214 C773.823779,593.844901 726.638847,676.19995 654.811793,724.991507 L780.193206,724.991507 L780.193206,839.641189 L222.868365,839.641189 L222.868365,724.991507 L350.37292,724.991507 C278.545866,676.19995 231.360934,593.844901 231.360934,500.469214 C231.360934,407.767815 277.86686,325.928463 348.821724,277.008493 Z M501.530786,343.887473 C414.466784,343.887473 343.887473,414.466784 343.887473,501.530786 C343.887473,588.594787 414.466784,659.174098 501.530786,659.174098 C588.594787,659.174098 659.174098,588.594787 659.174098,501.530786 C659.174098,414.466784 588.594787,343.887473 501.530786,343.887473 Z M501.530786,343.887473" id="Oval 1" stroke="rgb(132,132,132)" stroke-width="1" fill="#01684A"></path>
            <path d="M501,1 C777.142389,1 1001,224.857611 1001,501 C1001,777.142389 777.142389,1001 501,1001 C224.857611,1001 1,777.142389 1,501 C1,224.857611 224.857611,1 501,1 Z M501.530786,51.955414 C252.650862,51.955414 50.8938429,253.712433 50.8938429,502.592357 C50.8938429,751.47228 252.650862,953.229299 501.530786,953.229299 C750.410709,953.229299 952.167728,751.47228 952.167728,502.592357 C952.167728,253.712433 750.410709,51.955414 501.530786,51.955414 Z M501.530786,51.955414" id="Oval 3" stroke="rgb(132,132,132)" stroke-width="1" fill="#01684A"></path>
        </g>
    </g>
</svg>