<?xml version="1.0" encoding="UTF-8" standalone="no"?>
<svg width="1024px" height="1024px" viewBox="0 0 1024 1024" version="1.1" xmlns="http://www.w3.org/2000/svg" xmlns:xlink="http://www.w3.org/1999/xlink" xmlns:sketch="http://www.bohemiancoding.com/sketch/ns">
    <title>Ruboto</title>
    <description>Created with Sketch (http://www.bohemiancoding.com/sketch)</description>
    <defs></defs>
    <g id="Page-1" stroke="none" stroke-width="1" fill="none" fill-rule="evenodd" sketch:type="MSPage">
        <g id="Ruboto" sketch:type="MSArtboardGroup">
            <rect d="M0,0 L0,1024 L1024,1024 L1024,0 L0,0 Z M0,0" id="Background" stroke="#979797" fill="#898989" sketch:type="MSShapeGroup" x="0" y="0" width="1024" height="1024"></rect>
            <path d="M721.445783,205.30127 L840,325.30127 L184,325.30127 L302.554217,205.30127 L321.287187,205.30127 L344.381198,205.30127 L313.411575,151.660309 C313.411576,142.672851 319.217074,136.761424 324,134 C328.783978,131.237969 335.006837,129.867188 344.588489,133.660309 L385.950417,205.30127 L636.049583,205.30127 L644.132487,191.30127 L675.661939,139.385598 C677.960609,135.600661 683.375258,132.978289 687.765304,133.512874 L691.41053,133.956761 C695.797651,134.49099 701.087798,138.058913 703.21987,141.925144 L704.727967,144.659879 C706.863345,148.532104 706.79705,154.763063 704.587276,158.590504 L677.618802,205.30127 L700.083024,205.301268 L716.596696,177.301272 L700.712813,205.30127 L721.445783,205.30127 Z M413,868 C437.852814,868 458,847.849586 458,822.995247 L458,728.004753 C458,703.149314 437.858278,683 413,683 C388.147186,683 368,703.150414 368,728.004753 L368,822.995247 C368,847.850686 388.141722,868 413,868 Z M611,868 C635.852814,868 656,847.849586 656,822.995247 L656,728.004753 C656,703.149314 635.858278,683 611,683 C586.147186,683 566,703.150414 566,728.004753 L566,822.995247 C566,847.850686 586.141722,868 611,868 Z M165,671 C189.852814,671 210,650.847665 210,625.998683 L210,476.001317 C210,451.147776 189.858278,431 165,431 C140.147186,431 120,451.152335 120,476.001317 L120,625.998683 C120,650.852224 140.141722,671 165,671 Z M859,671 C883.852814,671 904,650.847665 904,625.998683 L904,476.001317 C904,451.147776 883.858278,431 859,431 C834.147186,431 814,451.152335 814,476.001317 L814,625.998683 C814,650.852224 834.141722,671 859,671 Z M840,381 L512,713 L184,381 L840,381 Z M840,381" id="Inner" stroke="#979797" fill="#CB0011" sketch:type="MSShapeGroup"></path>
            <path d="M165,699 C124.678927,699 92,666.317375 92,625.998683 L92,476.001317 C92,435.687409 124.684165,403 165,403 C165.463538,403 164.081382,400.678635 164.081382,400.678635 L116.977189,353 L184,353 L840,353 L907.022811,353 L859.918618,400.678635 L857.612452,403.012924 C899.321073,403 932,435.682625 932,476.001317 L932,625.998683 C932,666.312591 899.315835,699 859,699 C818.678927,699 786,666.317375 786,625.998683 L786,476.001317 C786,475.833069 608.623878,655.037944 608.623878,655.037944 C651.321552,655 684,687.684642 684,728.004753 L684,822.995247 C684,863.313171 651.317175,896 611,896 C570.678448,896 538,863.315358 538,822.995247 L538,728.004753 C538,727.5046 531.918618,732.678635 531.918618,732.678635 L512,752.840163 L492.081382,732.678635 L485.984963,726.507868 C485.994972,727.005623 486,822.995247 486,822.995247 C486,863.313171 453.317175,896 413,896 C372.678448,896 340,863.315358 340,822.995247 L340,728.004753 C340,687.686829 372.682825,655 413,655 C413.795075,655 237.998295,475.496973 237.998295,475.496973 C237.999431,475.664954 238,625.998683 238,625.998683 C238,666.312591 205.315835,699 165,699 Z M165,671 C189.852814,671 210,650.847665 210,625.998683 L210,476.001317 C210,451.147776 189.858278,431 165,431 C140.147186,431 120,451.152335 120,476.001317 L120,625.998683 C120,650.852224 140.141722,671 165,671 Z M859,671 C883.852814,671 904,650.847665 904,625.998683 L904,476.001317 C904,451.147776 883.858278,431 859,431 C834.147186,431 814,451.152335 814,476.001317 L814,625.998683 C814,650.852224 834.141722,671 859,671 Z M611,868 C635.852814,868 656,847.849586 656,822.995247 L656,728.004753 C656,703.149314 635.858278,683 611,683 C586.147186,683 566,703.150414 566,728.004753 L566,822.995247 C566,847.850686 586.141722,868 611,868 Z M413,868 C437.852814,868 458,847.849586 458,822.995247 L458,728.004753 C458,703.149314 437.858278,683 413,683 C388.147186,683 368,703.150414 368,728.004753 L368,822.995247 C368,847.850686 388.141722,868 413,868 Z M712,109.751289 C693.823702,99.2571981 670.584357,105.485286 660.091003,123.660309 L627.287187,177.30127 L392,177.30127 L361.908997,123.660309 C351.415643,105.485286 328.176298,99.2571981 310,109.751289 C291.825031,120.244612 285.596327,143.482888 296.091067,161.660309 L305.121381,177.301272 L290.856707,177.30127 L282.635599,185.622636 L116.977189,353.30127 L184,353.30127 L840,353.30127 L907.022811,353.30127 L741.364401,185.622636 L733.143293,177.30127 L716.878619,177.301272 L725.908933,161.660309 C736.403673,143.482888 730.174969,120.244612 712,109.751289 Z M320.853516,205.301268 L321.287186,205.301268 L305.605419,178.139651 L320.853516,205.301268 Z M840,381 L512,713 L184,381 L840,381 Z M721.445783,205.30127 L840,325.30127 L184,325.30127 L302.554217,205.30127 L321.287187,205.30127 L344.381198,205.30127 L313.411575,151.660309 C313.411576,142.672851 319.217074,136.761424 324,134 C328.783978,131.237969 335.006837,129.867188 344.588489,133.660309 L385.950417,205.30127 L636.049583,205.30127 L644.132487,191.30127 L675.661939,139.385598 C677.960609,135.600661 683.375258,132.978289 687.765304,133.512874 L691.41053,133.956761 C695.797651,134.49099 701.087798,138.058913 703.21987,141.925144 L704.727967,144.659879 C706.863345,148.532104 706.79705,154.763063 704.587276,158.590504 L677.618802,205.30127 L700.083024,205.301268 L716.596696,177.301272 L700.712813,205.30127 L721.445783,205.30127 Z M305.134766,177.301272 L305.605419,178.139651 L305.121381,177.301272 L305.134766,177.301272 Z M392,244 C378.745165,244 368,254.745165 368,268 C368,281.254835 378.745165,292 392,292 C405.254835,292 416,281.254835 416,268 C416,254.745165 405.254835,244 392,244 Z M632,244 C618.745165,244 608,254.745165 608,268 C608,281.254835 618.745165,292 632,292 C645.254835,292 656,281.254835 656,268 C656,254.745165 645.254835,244 632,244 Z M632,244" id="Outline" fill="#FFFFFF" sketch:type="MSShapeGroup"></path>
        </g>
    </g>
</svg>