<?xml version="1.0" encoding="UTF-8" standalone="no"?>
<svg width="1024px" height="1024px" viewBox="0 0 256 256" version="1.1" xmlns="http://www.w3.org/2000/svg" xmlns:xlink="http://www.w3.org/1999/xlink" xmlns:sketch="http://www.bohemiancoding.com/sketch/ns">
    <title>Spotify</title>
    <description>Created with Sketch (http://www.bohemiancoding.com/sketch)</description>
    <defs></defs>

    <g id="Page-1" stroke="none" stroke-width="1" fill="none" fill-rule="evenodd" sketch:type="MSPage">
        <g id="spotify" sketch:type="MSArtboardGroup" fill="#A0C043">
            <path d="M228,128 C228,72.7715223 183.228478,28 128,28 C72.7715223,28 28,72.7715223 28,128 C28,183.228478 72.7715223,228 128,228 C183.228478,228 228,183.228478 228,128 Z M120.450195,161.01709 C158.390461,162.817445 167.717285,182.902344 174.791992,171.980469 C180.838867,162.572754 150.118164,152.07959 128.262695,149.083008 C118.771484,146.947754 73.2333984,148.591797 71.0180664,155.963379 C67.8374023,174.320801 92.1879883,157.935547 120.450195,161.01709 Z M76.3876953,136.407715 C84.1352809,134.499529 93.6477765,130.69285 122.730957,131.78418 C166.705078,133.916016 179.099609,158.369141 187.17041,144.447266 C194.212402,132.193848 155.156738,119.083008 124.965332,115.966797 C91.5507813,114.044922 80.4394531,119.437012 75.3945313,119.987305 C59.4820365,123.143976 67.5175781,139.546387 76.3876953,136.407715 Z M71.543457,105.328125 C80.5449217,103.199707 91.1894531,99.043457 124.979492,100.260742 C167.873535,103.775879 188.014365,116.947994 188.014365,116.947994 C192.897441,119.499481 198.768414,117.510918 201.116968,112.528857 L200.579321,113.669385 C202.932612,108.677276 200.877506,102.533565 195.924947,100.118331 C195.924947,100.118331 169.168457,84.328125 129,81.8227539 C88.8315428,79.317383 74.855957,85.8491211 70.7260742,86.1806641 C52.2382812,89.7016602 60.496582,110.112793 71.543457,105.328125 Z" sketch:type="MSShapeGroup"></path>
        </g>
    </g>
</svg>
